#define CSP_width 36
#define CSP_height 38
static char CSP_bits[] = {
 0x00,0x00,0x00,0x00,0x00,0x00,0x00,0x00,0x00,0x00,0x00,0x00,0x00,0x00,0x00,
 0x00,0x00,0x00,0x00,0x00,0x00,0x00,0x00,0x00,0x00,0x00,0x0e,0x00,0x00,0x04,
 0x00,0x0f,0x20,0x00,0x06,0x80,0x0f,0x70,0x00,0x06,0xe0,0x0f,0xf0,0x00,0x07,
 0xe0,0x0f,0xf8,0x00,0x07,0xf0,0x48,0x38,0x00,0x01,0xf8,0x48,0x7c,0x00,0x02,
 0x38,0x6c,0xfe,0x80,0x02,0x18,0x6c,0xde,0x80,0x02,0x18,0x2c,0xde,0xc0,0x03,
 0x18,0x34,0x8e,0x40,0x03,0x18,0x34,0x8e,0x40,0x03,0x08,0x12,0x83,0x20,0x01,
 0x08,0x12,0xc7,0x20,0x01,0x00,0x92,0xc1,0x20,0x01,0x00,0x83,0xc1,0x20,0x01,
 0x00,0x8b,0xc1,0x00,0x01,0x00,0xbf,0x41,0x10,0x00,0x80,0xbf,0x41,0x10,0x00,
 0xe0,0x9f,0x41,0x18,0x00,0xf0,0x9f,0x21,0x18,0x00,0xf0,0x9f,0x21,0x18,0x00,
 0xf0,0x8f,0x20,0x08,0x00,0xf0,0x84,0x30,0x08,0x00,0x60,0x84,0x30,0x1e,0x00,
 0x60,0x84,0x30,0x3f,0x00,0x20,0x80,0x18,0xff,0x00,0x20,0x80,0x1c,0xff,0x01,
 0x20,0x82,0x0f,0xff,0x03,0x00,0x02,0x0f,0xf9,0x01,0x00,0x02,0x07,0xf0,0x01,
 0x00,0x00,0x00,0xc0,0x00,0x00,0x00,0x00,0x00,0x00};
