#define devnew.xbm_width 52
#define devnew.xbm_height 42
static unsigned char devnew.xbm_bits[] = {
   0x00, 0x00, 0x00, 0x00, 0x00, 0x00, 0x00, 0x00, 0x00, 0x00, 0x00, 0x00,
   0x00, 0x00, 0xfc, 0xff, 0xff, 0xff, 0xff, 0xff, 0x03, 0xfc, 0xff, 0xff,
   0xff, 0xff, 0xff, 0x03, 0x04, 0x00, 0x00, 0x00, 0x00, 0x00, 0x02, 0x04,
   0x00, 0x00, 0x00, 0x00, 0x00, 0x02, 0x04, 0xff, 0x00, 0x00, 0x00, 0x00,
   0x02, 0x04, 0xff, 0x01, 0x00, 0x00, 0x00, 0x02, 0x04, 0x86, 0x01, 0x00,
   0x00, 0x00, 0x02, 0x04, 0x86, 0x01, 0x00, 0x00, 0x00, 0x02, 0x04, 0xc3,
   0x01, 0x00, 0x00, 0x00, 0x02, 0x04, 0xff, 0x00, 0x00, 0x00, 0x00, 0x02,
   0x04, 0xff, 0x00, 0x00, 0x00, 0x00, 0x02, 0x84, 0x01, 0x00, 0x00, 0x00,
   0x00, 0x02, 0x84, 0x01, 0x78, 0x00, 0x00, 0x00, 0x02, 0x84, 0x01, 0x78,
   0x00, 0x00, 0x00, 0x02, 0xc4, 0x0f, 0xc0, 0x01, 0x00, 0x00, 0x02, 0xc4,
   0x0f, 0xc0, 0x01, 0x00, 0x00, 0x02, 0x04, 0x00, 0x80, 0x01, 0x00, 0x00,
   0x02, 0x04, 0x00, 0x80, 0x81, 0x01, 0x00, 0x02, 0x04, 0x00, 0x80, 0x81,
   0x01, 0x00, 0x02, 0x04, 0x00, 0x00, 0x9f, 0x01, 0x00, 0x02, 0x04, 0x00,
   0x00, 0xbe, 0x01, 0x00, 0x02, 0x04, 0x00, 0x00, 0xf0, 0x01, 0x1e, 0x02,
   0x04, 0x00, 0x00, 0xe0, 0x81, 0x3f, 0x02, 0x04, 0x00, 0x00, 0xe0, 0xc1,
   0x71, 0x02, 0x04, 0x00, 0x00, 0xfc, 0xc1, 0x60, 0x02, 0x04, 0x00, 0x00,
   0xfe, 0x61, 0x60, 0x02, 0x04, 0x00, 0x00, 0x00, 0x60, 0x60, 0x02, 0x04,
   0x00, 0x00, 0x00, 0x60, 0x60, 0x02, 0x04, 0x00, 0x00, 0x00, 0x60, 0x30,
   0x02, 0x04, 0x00, 0x00, 0x00, 0xe0, 0x38, 0x02, 0x04, 0x00, 0x00, 0x00,
   0xe0, 0x38, 0x02, 0x04, 0x00, 0x00, 0x00, 0x80, 0x27, 0x02, 0x04, 0x00,
   0x00, 0x00, 0x80, 0x27, 0x02, 0x04, 0x00, 0x00, 0x00, 0xe0, 0x1f, 0x02,
   0x04, 0x00, 0x00, 0x00, 0x00, 0x00, 0x02, 0x04, 0x00, 0x00, 0x00, 0x00,
   0x00, 0x02, 0x04, 0x00, 0x00, 0x00, 0x00, 0x00, 0x02, 0xfc, 0xff, 0xff,
   0xff, 0xff, 0xff, 0x03, 0x00, 0x00, 0x00, 0x00, 0x00, 0x00, 0x00, 0x00,
   0x00, 0x00, 0x00, 0x00, 0x00, 0x00};
