#define Folder_width 39
#define Folder_height 31
static char Folder_bits[] = {
 0x00,0x00,0x00,0x00,0x80,0x00,0x00,0x00,0x00,0x80,0x00,0xe0,0xff,0x00,0x80,
 0x00,0x10,0x00,0x01,0x80,0xe0,0x0f,0x00,0xfe,0x80,0x10,0x00,0x00,0x00,0x81,
 0xe8,0x1f,0x00,0xff,0x82,0x18,0x20,0x80,0x00,0x83,0x08,0xc0,0x7f,0x00,0x86,
 0x08,0x00,0x00,0x00,0x86,0x08,0x00,0x00,0x00,0x86,0x08,0x00,0x00,0x00,0x86,
 0x08,0x00,0x00,0x00,0x86,0x08,0x00,0x00,0x00,0x86,0x08,0x00,0x00,0x00,0x86,
 0x08,0x00,0x00,0x00,0x86,0x08,0x00,0x00,0x00,0x86,0x08,0x00,0x00,0x00,0x86,
 0x08,0x00,0x00,0x00,0x86,0x08,0x00,0x00,0x00,0x86,0x08,0x00,0x00,0x00,0x86,
 0x08,0x00,0x00,0x00,0x86,0x08,0x00,0x00,0x00,0x86,0x08,0x00,0x00,0x00,0x86,
 0x08,0x00,0x00,0x00,0x86,0xf8,0xff,0xff,0xff,0x87,0xf0,0xff,0xff,0xff,0x87,
 0x00,0x00,0x00,0x00,0x80,0x00,0x00,0x00,0x00,0x80,0x00,0x00,0x00,0x00,0x80,
 0x00,0x00,0x00,0x00,0x80};
