#define hask_width 45
#define hask_height 47
static unsigned char hask_bits[] = {
  0x00, 0x00, 0x00, 0x00, 0x00, 0x00, 0x00, 0x00, 0x00, 0x00, 0x00, 0x00,
  0x00, 0x00, 0x00, 0x00, 0x00, 0x00, 0x00, 0x00, 0x00, 0x00, 0x00, 0x00,
  0x00, 0x00, 0x00, 0x00, 0x00, 0x00, 0x00, 0x00, 0x00, 0x00, 0x00, 0x00,
  0x00, 0xc0, 0x07, 0x00, 0x00, 0x00, 0x00, 0xf0, 0x0f, 0x00, 0x00, 0x00,
  0x00, 0xf8, 0x1f, 0x00, 0x00, 0x00, 0x00, 0xfc, 0x3f, 0x00, 0x00, 0x00,
  0x00, 0xf8, 0x3f, 0x00, 0x00, 0x00, 0x00, 0x3e, 0x7e, 0x00, 0x00, 0x00,
  0x00, 0x1c, 0x78, 0x00, 0x00, 0x00, 0x00, 0x0c, 0x78, 0x00, 0x00, 0x00,
  0x00, 0x0c, 0xf0, 0x00, 0x00, 0x00, 0x00, 0x08, 0xf8, 0x00, 0x00, 0x00,
  0x00, 0x00, 0xe0, 0x00, 0x00, 0x00, 0x00, 0x00, 0xe0, 0x00, 0x00, 0x00,
  0x00, 0x00, 0xe0, 0x01, 0x00, 0x00, 0x00, 0x00, 0xe0, 0x01, 0x00, 0x00,
  0x00, 0x00, 0xe8, 0x01, 0x00, 0x00, 0x00, 0x00, 0xf0, 0x03, 0x00, 0x00,
  0x00, 0x00, 0xf0, 0x03, 0x00, 0x00, 0x00, 0x00, 0xfa, 0x03, 0x00, 0x00,
  0x00, 0x00, 0xf8, 0x03, 0x00, 0x00, 0x00, 0x00, 0xfd, 0x07, 0x00, 0x00,
  0x00, 0x80, 0x7e, 0x07, 0x00, 0x00, 0x00, 0x00, 0x3e, 0x07, 0x00, 0x00,
  0x00, 0x40, 0x3f, 0x0f, 0x00, 0x00, 0x00, 0x80, 0x1f, 0x0f, 0x00, 0x00,
  0x00, 0xa0, 0x1f, 0x0e, 0x00, 0x00, 0x00, 0xc0, 0x0f, 0x0e, 0x00, 0x00,
  0x00, 0xd0, 0x0f, 0x1f, 0x00, 0x00, 0x00, 0xe8, 0x07, 0x1c, 0x70, 0x00,
  0x00, 0xf0, 0x07, 0x3c, 0x60, 0x00, 0x00, 0xf4, 0x03, 0x3c, 0x68, 0x00,
  0x00, 0xf8, 0x01, 0xfa, 0x6c, 0x00, 0x00, 0xfa, 0x01, 0xf8, 0x7f, 0x00,
  0x00, 0xfd, 0x00, 0xf8, 0x7f, 0x00, 0x00, 0xfc, 0x00, 0xf0, 0x7f, 0x00,
  0x80, 0x7e, 0x00, 0xf0, 0x3f, 0x00, 0x00, 0x7f, 0x00, 0xe0, 0x1f, 0x00,
  0x40, 0x00, 0x00, 0x00, 0x0b, 0x00, 0x00, 0x00, 0x00, 0x00, 0x00, 0x00,
  0x00, 0x00, 0x00, 0x00, 0x00, 0x00, 0x00, 0x00, 0x00, 0x00, 0x00, 0x00,
  0x00, 0x00, 0x00, 0x00, 0x00, 0x00, };
