#define ged_edgedel_width 18
#define ged_edgedel_height 18
static unsigned char ged_edgedel_bits[] = {
  0x00, 0x00, 0x00, 0x22, 0x00, 0x00, 0x3e, 0x00, 0x00, 0x08, 0x02, 0x00,
  0x08, 0x03, 0x00, 0x88, 0x3f, 0x00, 0x08, 0x03, 0x00, 0x08, 0x02, 0x00,
  0x3e, 0x00, 0x00, 0x22, 0x00, 0x00, 0x3e, 0x00, 0x00, 0x00, 0x00, 0x00,
  0xe0, 0x5c, 0x00, 0x20, 0x45, 0x00, 0x20, 0x5d, 0x00, 0x20, 0x45, 0x00,
  0xe0, 0xdc, 0x01, 0x00, 0x00, 0x00, };
