#define ged_dragdrop_width 18
#define ged_dragdrop_height 18
static unsigned char ged_dragdrop_bits[] = {
  0x00, 0x00, 0x00, 0x00, 0x00, 0x00, 0x20, 0x00, 0x00, 0x60, 0x00, 0x00,
  0xe0, 0x00, 0x00, 0xe0, 0x01, 0x00, 0xe0, 0x03, 0x00, 0xe0, 0x07, 0x00,
  0xe0, 0x0f, 0x00, 0xe0, 0x1f, 0x00, 0xe0, 0x03, 0x00, 0x60, 0x03, 0x00,
  0x20, 0x06, 0x00, 0x00, 0x06, 0x00, 0x00, 0x0c, 0x00, 0x00, 0x0c, 0x00,
  0x00, 0x00, 0x00, 0x00, 0x00, 0x00, };
