#define ged_nodenew_width 18
#define ged_nodenew_height 18
static unsigned char ged_nodenew_bits[] = {
  0x00, 0x00, 0x00, 0x10, 0x02, 0x00, 0xf0, 0x03, 0x00, 0x40, 0x00, 0x00,
  0x20, 0x00, 0x00, 0x10, 0x04, 0x00, 0x7e, 0x06, 0x00, 0x7e, 0x7f, 0x00,
  0x7e, 0x06, 0x00, 0x00, 0x04, 0x00, 0x00, 0x00, 0x00, 0x00, 0x00, 0x00,
  0x48, 0x17, 0x01, 0x58, 0x51, 0x01, 0x68, 0x57, 0x01, 0x48, 0xa1, 0x00,
  0x48, 0xa7, 0x00, 0x00, 0x00, 0x00, };
