#define ged_nodeattr_width 18
#define ged_nodeattr_height 18
static unsigned char ged_nodeattr_bits[] = {
  0x00, 0x00, 0x00, 0x10, 0x02, 0x00, 0xf0, 0x03, 0x00, 0x40, 0x00, 0x00,
  0x20, 0x00, 0x00, 0x10, 0x04, 0x00, 0x7e, 0x06, 0x00, 0x7e, 0x7f, 0x00,
  0x7e, 0x06, 0x00, 0x00, 0x04, 0x00, 0x00, 0xe0, 0x00, 0x00, 0xb0, 0x01,
  0x00, 0x80, 0x01, 0x00, 0xc0, 0x00, 0x00, 0x60, 0x00, 0x00, 0x00, 0x00,
  0x00, 0x60, 0x00, 0x00, 0x00, 0x00, };
